<svg id="Layer_1" data-name="Layer 1" xmlns="http://www.w3.org/2000/svg" viewBox="0 0 495.16 429"><defs><style>.cls-1{fill:#efefef;}.cls-2{fill:#f9e178;}.cls-3{fill:#635723;}.cls-4{fill:#00aa2f;}.cls-5{fill:#aa2f00;}.cls-6{fill:#fff;}.cls-7{fill:#48cc11;}.cls-8{fill:#d44100;}.cls-9{fill:#aa1c00;}.cls-10{fill:#757575;}.cls-11{fill:#e9cc00;}.cls-12{fill:#424242;}.cls-13{fill:#b7b7b7;}.cls-14{fill:#ccc;}.cls-15{fill:#636363;}.cls-16{fill:#63383b;}.cls-17{fill:#239b0e;}</style></defs><title>oas-logo</title><circle class="cls-1" cx="134.5" cy="134.5" r="134.5"/><path class="cls-2" d="M57,203.62c42.09,41.56,101.62,50.21,140,26,30.37-19.13,38.13-52.92,40-62.64Z" transform="translate(-12 -8)"/><circle class="cls-3" cx="95" cy="197" r="3"/><path class="cls-3" d="M120,226" transform="translate(-12 -8)"/><path class="cls-3" d="M120,220" transform="translate(-12 -8)"/><circle class="cls-3" cx="74" cy="207" r="3"/><circle class="cls-3" cx="105" cy="218" r="3"/><circle class="cls-3" cx="126" cy="200" r="3"/><circle class="cls-3" cx="143" cy="226" r="3"/><circle class="cls-3" cx="146" cy="184" r="3"/><circle class="cls-3" cx="165" cy="200" r="3"/><circle class="cls-3" cx="178" cy="178" r="3"/><circle class="cls-3" cx="188" cy="207" r="3"/><circle class="cls-3" cx="209" cy="172" r="3"/><circle class="cls-4" cx="206" cy="89" r="22"/><circle class="cls-5" cx="149" cy="45" r="22"/><path class="cls-6" d="M108,130c9.88-26.4,39.07-38,61-28,22.69,10.39,31.61,41.23,23,51C186.44,159.31,169,162.06,108,130Z" transform="translate(-12 -8)"/><polygon class="cls-7" points="42 86 53 86 47 133 42 86"/><polygon class="cls-8" points="59.16 86.97 68.26 93.15 36.88 128.66 59.16 86.97"/><polygon class="cls-7" points="28.43 94.49 38.09 89.23 55.3 133.38 28.43 94.49"/><polygon class="cls-9" points="30 111.14 29.93 100.14 76.97 105.86 30 111.14"/><path class="cls-10" d="M74.54,157.4c8.07,5.71,25.87-.51,25.25-10.19C99.46,142.08,94,136,88.52,134.66c-7.61-1.86-16.8,5.2-17.21,19A11,11,0,0,0,74.54,157.4Z" transform="translate(-12 -8)"/><path class="cls-10" d="M70,156.86c-32.31,29.26-32.62,29.6-32.62,29.6L42,194.31,75.4,157.39l-3.21-2.9Z" transform="translate(-12 -8)"/><circle class="cls-11" cx="81" cy="52" r="22"/><path class="cls-12" d="M75.06,156c9.23-8.56,17.43-9.29,20.72-9.32,5.73,0,12.26,1.95,12.19,3.35-.06,1.23-5.21,2-9.54,2.4q11.52,1.4,11.5,2.62t-9.52,2.05c2.3.44,9.37,1.85,9.29,3.22s-5.86,1.87-8.43,2.1l8.94,2.86a47.14,47.14,0,0,1-7.71,2.13c-3.3.61-19.91,3.7-25.57-4.28A11.23,11.23,0,0,1,75.06,156Z" transform="translate(-12 -8)"/><path class="cls-12" d="M34.24,160.59s-34.32,21.77,3.51,11.07,39.67-11.32,39.67-11.32l-.94-3.56Z" transform="translate(-12 -8)"/><path class="cls-1" d="M-181,405" transform="translate(-12 -8)"/><rect class="cls-13" x="174" y="126" width="121" height="299"/><rect class="cls-13" x="289" y="216" width="121" height="209"/><path class="cls-14" d="M-338,486" transform="translate(-12 -8)"/><rect class="cls-15" x="209" y="349" width="43" height="76"/><rect class="cls-15" x="196" y="152" width="21" height="14"/><rect class="cls-15" x="223" y="152" width="21" height="14"/><rect class="cls-15" x="248" y="152" width="21" height="14"/><rect class="cls-15" x="195" y="190" width="21" height="14"/><rect class="cls-15" x="222" y="190" width="21" height="14"/><rect class="cls-15" x="247" y="190" width="21" height="14"/><rect class="cls-15" x="195" y="228" width="21" height="14"/><rect class="cls-15" x="222" y="228" width="21" height="14"/><rect class="cls-15" x="247" y="228" width="21" height="14"/><path class="cls-16" d="M441,437c5.73-54.36-5.1-74.31-17-82-8-5.17-20.24-7.24-22-16-1.56-7.75,5.66-17.92,12-18,2.93,0,4.79,2.1,11,9,16.17,18,17.31,18.72,19,19,11.38,1.89,20.82-22.25,28-20,5.48,1.72,5.11,17.38,5,21-.53,16.92-4.24,45-22,83" transform="translate(-12 -8)"/><path class="cls-17" d="M379.56,300.75c.21-10.92,7.78-22.43,14.57-22.35,5.27.06,6.85,7.06,10.48,6.57,7.8-1.06,3.55-33.68,15.6-38.6,10.87-4.44,32.27,14.78,32.25,14.77h0s26.83-4.35,34.55,5.62c5.09,6.57,1,18.27-5.68,37.37-6.12,17.53-11.18,23.9-8.31,27.42,5.43,6.67,28.76-9.61,33.33-4.3,6.9,8-32.05,62.11-50.59,55.6-14.14-5-8-42.27-24.54-47.16-12-3.54-22.81,13.87-33.41,8.55-1.46-.73-3-1.91-12.93-26.42C380.1,306.08,379.49,304,379.56,300.75Z" transform="translate(-12 -8)"/></svg>