<svg id="Layer_1" data-name="Layer 1" xmlns="http://www.w3.org/2000/svg" viewBox="0 0 257 257"><defs><style>.cls-1{fill:#070707;}.cls-2,.cls-3{fill:#fff;}.cls-2{stroke:#fff;stroke-miterlimit:10;stroke-width:10px;}</style></defs><title>search-box</title><path d="M-787-27"/><rect class="cls-1" x="5" y="5" width="247" height="247"/><path d="M247,10V247H10V10H247M257,0H0V257H257V0Z"/><path class="cls-2" d="M179.57,202.55"/><path class="cls-2" d="M134.32,158.83c0-4.3.43-10.72,3.46-12.74"/><path d="M119.75,153.75C92.87,153.75,71,132.28,71,105.88S92.87,58,119.75,58s48.75,21.48,48.75,47.88S146.63,153.75,119.75,153.75Z"/><path class="cls-3" d="M119.75,63c24.13,0,43.75,19.23,43.75,42.88s-19.62,42.88-43.75,42.88S76,129.52,76,105.88,95.63,63,119.75,63m0-10C90.07,53,66,76.67,66,105.88s24.07,52.88,53.75,52.88,53.75-23.68,53.75-52.88S149.44,53,119.75,53Z"/><path class="cls-2" d="M142.33,148.23l52.87,79.3Z"/></svg>