<svg id="Layer_1" data-name="Layer 1" xmlns="http://www.w3.org/2000/svg" viewBox="0 0 499 499"><defs><style>.cls-1{fill:#383737;}.cls-1,.cls-3{stroke:#000;stroke-miterlimit:10;}.cls-2,.cls-3{fill:#fff;}</style></defs><title>user-logo</title><circle class="cls-1" cx="249.5" cy="249.5" r="249"/><path class="cls-2" d="M181.5,173.5c1.22-40.69,32.76-83.56,72-85,35.52-1.3,59.43,32,63,37,3,4.23,25.55,36.77,14,77-1.67,5.82-14.09,46.58-52,57-23.63,6.5-43.67-2.51-49-5C199.16,240.33,180.52,206.3,181.5,173.5Z" transform="translate(0 1)"/><path class="cls-2" d="M103,401c11-76.76,39.09-131.93,65.88-133.52,4.89-.29,17.1.77,30,4.94,16.56,5.39,19.71,11.26,37.93,18.8,18,7.45,27,11.18,36.93,8.9,19.67-4.52,21.49-25.78,41.92-27.7a32.87,32.87,0,0,1,19,4c6.52,3.78,9.81,9.2,12,12.86,14.44,24.41,21.75,36.56,24,42.53,8.49,23,21,56.68,7,70.71-6.14,6.16-14.21,5.36-37,5-23.67-.37-47.36,2.24-71,1C231.2,406.48,174.72,404.18,103,401Z" transform="translate(0 1)"/><path class="cls-3" d="M314.5,283.5" transform="translate(0 1)"/></svg>