<?xml version="1.0" encoding="utf-8"?>
<!-- Generator: Adobe Illustrator 23.0.0, SVG Export Plug-In . SVG Version: 6.00 Build 0)  -->
<svg version="1.1" id="Capa_1" xmlns="http://www.w3.org/2000/svg" xmlns:xlink="http://www.w3.org/1999/xlink" x="0px" y="0px"
	 viewBox="0 0 274.6 395.7" style="enable-background:new 0 0 274.6 395.7;" xml:space="preserve">
<style type="text/css">
	.st0{fill:#910000;}
</style>
<title>room</title>
<path class="st0" d="M137.3,0C99.4,0,68.7,30.8,68.7,68.7c0,36.4,62.3,121.6,65,125.2l2.5,3.4c0.5,0.7,1.4,0.9,2.1,0.4
	c0.1-0.1,0.3-0.2,0.4-0.4l2.5-3.4c2.7-3.6,65-88.8,65-125.2C206,30.8,175.2,0,137.3,0z M137.3,44.1c13.6,0,24.6,11,24.6,24.6
	s-11,24.6-24.6,24.6c-13.6,0-24.6-11-24.6-24.6C112.7,55.1,123.7,44.1,137.3,44.1z"/>
</svg>
